<?xml version="1.0" standalone="no"?>
<!DOCTYPE svg PUBLIC "-//W3C//DTD SVG 20010904//EN"
 "http://www.w3.org/TR/2001/REC-SVG-20010904/DTD/svg10.dtd">
<svg version="1.0" xmlns="http://www.w3.org/2000/svg"
 width="512.000000pt" height="512.000000pt" viewBox="0 0 512.000000 512.000000"
 preserveAspectRatio="xMidYMid meet">
<metadata>
Created by potrace 1.11, written by Peter Selinger 2001-2013
</metadata>
<g transform="translate(0.000000,512.000000) scale(0.100000,-0.100000)"
fill="#000000" stroke="none">
<path d="M2285 4129 c-148 -121 -286 -233 -305 -249 -43 -35 -275 -224 -312
-253 -14 -12 -104 -85 -199 -162 -491 -399 -600 -488 -750 -611 -53 -44 -114
-92 -135 -109 -21 -16 -54 -44 -74 -60 -34 -29 -66 -56 -195 -160 -33 -27 -60
-54 -60 -60 0 -12 375 -484 385 -484 4 -1 179 139 305 244 22 18 92 75 156
126 140 114 363 296 593 484 94 77 205 167 246 200 41 33 84 68 95 77 106 88
397 325 424 346 19 15 49 40 67 55 l33 28 133 -108 c73 -59 138 -112 144 -118
6 -5 26 -21 44 -35 18 -14 38 -30 44 -35 6 -6 45 -38 86 -70 41 -33 80 -64 86
-70 17 -16 83 -69 329 -269 127 -103 239 -195 250 -204 11 -10 67 -55 125
-102 58 -46 107 -87 110 -90 3 -3 75 -61 160 -130 85 -68 157 -127 160 -130 4
-5 188 -154 238 -193 9 -8 16 -7 20 0 4 6 21 28 39 49 17 22 101 125 187 231
86 105 156 194 156 198 0 9 -12 20 -125 110 -55 44 -163 132 -240 195 -78 63
-161 131 -185 150 -120 97 -326 266 -336 275 -6 5 -26 21 -44 35 -19 14 -48
37 -64 51 -17 14 -40 33 -51 42 -11 9 -88 72 -171 139 -83 68 -167 137 -188
153 -21 17 -47 37 -58 47 -10 9 -36 30 -56 46 -376 304 -477 386 -482 392 -9
10 -309 250 -312 250 -2 -1 -124 -100 -273 -221z"/>
<path d="M3498 4182 l-128 -3 1 -162 0 -162 100 -80 c56 -44 106 -85 112 -90
7 -6 73 -60 147 -120 74 -60 137 -112 140 -115 3 -3 50 -41 105 -85 55 -43
111 -90 125 -102 l25 -23 3 466 c1 257 1 469 -1 470 -5 5 -479 9 -629 6z"/>
<path d="M2539 3357 c-26 -20 -96 -76 -189 -152 -47 -39 -146 -120 -220 -180
-74 -60 -137 -111 -140 -114 -3 -3 -50 -42 -105 -86 -55 -44 -109 -88 -120
-97 -21 -17 -448 -365 -658 -536 l-117 -95 0 -874 0 -873 495 0 495 0 0 860 0
860 580 0 580 0 0 -860 0 -860 495 0 495 0 0 874 0 873 -222 181 c-123 99
-232 188 -243 199 -11 10 -30 25 -41 33 -19 13 -185 147 -249 202 -22 18 -197
160 -474 386 -97 78 -194 157 -215 175 -82 67 -121 97 -126 97 -3 -1 -12 -6
-21 -13z"/>
</g>
</svg>
